<?xml version="1.0" encoding="UTF-8"?>
<svg width="100%" height="100%" viewBox="0 0 16 16" version="1.1" xmlns="http://www.w3.org/2000/svg" xmlns:xlink="http://www.w3.org/1999/xlink">
  <g>
    <path style="fill:#60A6DA;" d="M8,0C3.6,0,0,3.6,0,8s3.6,8,8,8s8-3.6,8-8S12.4,0,8,0z"/>
    <path style="fill:#FFFFFF;" d="M8.7,12.4c0,0.1-0.1,0.2-0.2,0.2h-1c-0.1,0-0.2-0.1-0.2-0.2v-6c0-0.1,0.1-0.2,0.2-0.2h1
    c0.1,0,0.2,0.1,0.2,0.2V12.4z M8.8,4.9c0,0.1-0.1,0.2-0.2,0.2H7.4C7.2,5.1,7.2,5,7.2,4.9V3.7c0-0.1,0.1-0.2,0.2-0.2h1.2
    c0.2,0,0.2,0.1,0.2,0.2C8.8,3.7,8.8,4.9,8.8,4.9z"/>
  </g>
</svg>
